[Header]
FileType HTR
DataType HTRS
FileVersion 1
NumSegments 64
NumFrames 3
DataFrameRate 24
EulerRotationOrder ZYX
CalibrationUnits mm
RotationUnits Degrees
GlobalAxisofGravity Y
BoneLengthAxis Y
ScaleFactor 1.0
[SegmentNames&Hierarchy]
Hips	GLOBAL
Spine	Hips
Spine1	Spine
Spine2	Spine1
Neck	Spine2
Head	Neck
LeftEye	Head
RightEye	Head
LeftShoulder	Spine2
LeftArm	LeftShoulder
LeftForeArm	LeftArm
LeftHand	LeftForeArm
LeftHandThumb1	LeftHand
LeftHandThumb2	LeftHandThumb1
LeftHandThumb3	LeftHandThumb2
LeftHandThumb4	LeftHandThumb3
LeftHandIndex1	LeftHand
LeftHandIndex2	LeftHandIndex1
LeftHandIndex3	LeftHandIndex2
LeftHandIndex4	LeftHandIndex3
LeftHandMiddle1	LeftHand
LeftHandMiddle2	LeftHandMiddle1
LeftHandMiddle3	LeftHandMiddle2
LeftHandMiddle4	LeftHandMiddle3
LeftHandRing1	LeftHand
LeftHandRing2	LeftHandRing1
LeftHandRing3	LeftHandRing2
LeftHandRing4	LeftHandRing3
LeftHandPinky1	LeftHand
LeftHandPinky2	LeftHandPinky1
LeftHandPinky3	LeftHandPinky2
LeftHandPinky4	LeftHandPinky3
RightShoulder	Spine2
RightArm	RightShoulder
RightForeArm	RightArm
RightHand	RightForeArm
RightHandPinky1	RightHand
RightHandPinky2	RightHandPinky1
RightHandPinky3	RightHandPinky2
RightHandPinky4	RightHandPinky3
RightHandRing1	RightHand
RightHandRing2	RightHandRing1
RightHandRing3	RightHandRing2
RightHandRing4	RightHandRing3
RightHandMiddle1	RightHand
RightHandMiddle2	RightHandMiddle1
RightHandMiddle3	RightHandMiddle2
RightHandMiddle4	RightHandMiddle3
RightHandIndex1	RightHand
RightHandIndex2	RightHandIndex1
RightHandIndex3	RightHandIndex2
RightHandIndex4	RightHandIndex3
RightHandThumb1	RightHand
RightHandThumb2	RightHandThumb1
RightHandThumb3	RightHandThumb2
RightHandThumb4	RightHandThumb3
LeftUpLeg	Hips
LeftLeg	LeftUpLeg
LeftFoot	LeftLeg
LeftToeBase	LeftFoot
RightUpLeg	Hips
RightLeg	RightUpLeg
RightFoot	RightLeg
RightToeBase	RightFoot
[BasePosition]
Hips	0	0	0	0	0	0	1
Spine	0	0	0	0	0	0	1
Spine1	0	0	0	0	0	0	1
Spine2	0	0	0	0	0	0	1
Neck	0	0	0	0	0	0	1
Head	0	0	0	0	0	0	1
LeftEye	0	0	0	0	0	0	1
RightEye	0	0	0	0	0	0	1
LeftShoulder	0	0	0	0	0	0	1
LeftArm	0	0	0	0	0	0	1
LeftForeArm	0	0	0	0	0	0	1
LeftHand	0	0	0	0	0	0	1
LeftHandThumb1	0	0	0	0	0	0	1
LeftHandThumb2	0	0	0	0	0	0	1
LeftHandThumb3	0	0	0	0	0	0	1
LeftHandThumb4	0	0	0	0	0	0	1
LeftHandIndex1	0	0	0	0	0	0	1
LeftHandIndex2	0	0	0	0	0	0	1
LeftHandIndex3	0	0	0	0	0	0	1
LeftHandIndex4	0	0	0	0	0	0	1
LeftHandMiddle1	0	0	0	0	0	0	1
LeftHandMiddle2	0	0	0	0	0	0	1
LeftHandMiddle3	0	0	0	0	0	0	1
LeftHandMiddle4	0	0	0	0	0	0	1
LeftHandRing1	0	0	0	0	0	0	1
LeftHandRing2	0	0	0	0	0	0	1
LeftHandRing3	0	0	0	0	0	0	1
LeftHandRing4	0	0	0	0	0	0	1
LeftHandPinky1	0	0	0	0	0	0	1
LeftHandPinky2	0	0	0	0	0	0	1
LeftHandPinky3	0	0	0	0	0	0	1
LeftHandPinky4	0	0	0	0	0	0	1
RightShoulder	0	0	0	0	0	0	1
RightArm	0	0	0	0	0	0	1
RightForeArm	0	0	0	0	0	0	1
RightHand	0	0	0	0	0	0	1
RightHandPinky1	0	0	0	0	0	0	1
RightHandPinky2	0	0	0	0	0	0	1
RightHandPinky3	0	0	0	0	0	0	1
RightHandPinky4	0	0	0	0	0	0	1
RightHandRing1	0	0	0	0	0	0	1
RightHandRing2	0	0	0	0	0	0	1
RightHandRing3	0	0	0	0	0	0	1
RightHandRing4	0	0	0	0	0	0	1
RightHandMiddle1	0	0	0	0	0	0	1
RightHandMiddle2	0	0	0	0	0	0	1
RightHandMiddle3	0	0	0	0	0	0	1
RightHandMiddle4	0	0	0	0	0	0	1
RightHandIndex1	0	0	0	0	0	0	1
RightHandIndex2	0	0	0	0	0	0	1
RightHandIndex3	0	0	0	0	0	0	1
RightHandIndex4	0	0	0	0	0	0	1
RightHandThumb1	0	0	0	0	0	0	1
RightHandThumb2	0	0	0	0	0	0	1
RightHandThumb3	0	0	0	0	0	0	1
RightHandThumb4	0	0	0	0	0	0	1
LeftUpLeg	0	0	0	0	0	0	1
LeftLeg	0	0	0	0	0	0	1
LeftFoot	0	0	0	0	0	0	1
LeftToeBase	0	0	0	0	0	0	1
RightUpLeg	0	0	0	0	0	0	1
RightLeg	0	0	0	0	0	0	1
RightFoot	0	0	0	0	0	0	1
RightToeBase	0	0	0	0	0	0	1
[Hips]
3	-157.1238098	997.0718384	15.70602226	6.668326855	-72.22650909	-0.8207502365	1.0
4	-233.7424469	974.2727661	17.85610962	13.67155457	-77.62294769	-7.911925793	1.0
5	-310.199646	950.4859619	17.85703278	30.13259506	-82.0820694	-24.54824448	1.0
[Spine]
3	0	101.8159943	1.315000057	5.218553543	12.15024471	-0.4022346139	1.0
4	0	101.8159943	1.315000057	4.779140949	16.57986641	0.06794633716	1.0
5	0	101.8159943	1.315000057	4.794908047	20.4011097	0.7054242492	1.0
[Spine1]
3	0	100.8349991	-10.00800037	3.599522114	5.883145332	-0.6372929215	1.0
4	0	100.8349991	-10.00800037	3.247496367	6.564776421	-0.391885072	1.0
5	0	100.8349991	-10.00800037	3.10605216	7.136882305	-0.2244607955	1.0
[Spine2]
3	0	91	-13.73399925	3.527170897	5.929656982	-0.6518152356	1.0
4	0	91	-13.73399925	3.168092251	6.607378006	-0.4506632984	1.0
5	0	91	-13.73399925	3.019817829	7.178805828	-0.3045976758	1.0
[Neck]
3	0	166.7169952	-25.16200066	4.82984066	5.489556313	1.832209229	1.0
4	0	166.7169952	-25.16200066	4.508079529	5.577722073	1.796473026	1.0
5	0	166.7169952	-25.16200066	4.074952602	5.731257915	1.727206469	1.0
[Head]
3	0	96.17900085	16.84999847	-11.20672894	33.85390091	-12.69372749	1.0
4	0	96.17900085	16.84999847	-11.54532528	34.42206955	-13.68366051	1.0
5	0	96.17900085	16.84999847	-12.34885883	35.09357834	-14.36064625	1.0
[LeftEye]
3	30.6760006	64.09500122	92.83599854	0	0	0	1.0
4	30.6760006	64.09500122	92.83599854	0	0	0	1.0
5	30.6760006	64.09500122	92.83599854	0	0	0	1.0
[RightEye]
3	-30.6760006	64.09500122	92.83499908	0	0	0	1.0
4	-30.6760006	64.09500122	92.83499908	0	0	0	1.0
5	-30.6760006	64.09500122	92.83499908	0	0	0	1.0
[LeftShoulder]
3	45.70400238	109.4599991	-26.28000069	1.332026601	5.559374332	-7.400129318	1.0
4	45.70400238	109.4599991	-26.28000069	1.365378857	6.801512241	-7.436651707	1.0
5	45.70400238	109.4599991	-26.28000069	1.327824473	7.390980244	-7.40865469	1.0
[LeftArm]
3	105.923996	-5.24600029	-22.32099915	17.24217606	-1.937251329	-66.25331879	1.0
4	105.923996	-5.24600029	-22.32099915	15.91796589	2.365765572	-65.98830414	1.0
5	105.923996	-5.24600029	-22.32099915	14.50495052	4.050740242	-66.28804779	1.0
[LeftForeArm]
3	278.414978	-0.0009999999311	0	4.237258963e-06	-23.81402206	-0.000197711357	1.0
4	278.414978	-0.0009999999311	0	-8.655140846e-06	-22.4092865	-0.0001992460602	1.0
5	278.414978	-0.0009999999311	0	1.089256216e-06	-17.79196358	-0.000202241441	1.0
[LeftHand]
3	283.2879944	0	0	5.860917568	-3.944930315	2.949657202	1.0
4	283.2879944	0	0	6.56434679	0.7220868468	2.337515116	1.0
5	283.2879944	0	0	6.057112694	2.392145157	2.294840097	1.0
[LeftHandThumb1]
3	24.6609993	-15.75	26.8239994	30.58115005	-20.32058144	11.29641056	1.0
4	24.6609993	-15.75	26.8239994	30.58115005	-20.32058144	11.29641056	1.0
5	24.6609993	-15.75	26.8239994	30.58115005	-20.32058144	11.29641056	1.0
[LeftHandThumb2]
3	32.29800034	-18.64699936	18.64699936	11.0865984	23.03178787	-1.682027698	1.0
4	32.29800034	-18.64699936	18.64699936	11.75508404	21.80710411	-2.044428825	1.0
5	32.29800034	-18.64699936	18.64699936	12.17678165	20.42651558	-2.279858112	1.0
[LeftHandThumb3]
3	26.52600098	-15.31499958	15.31499958	-15.06678295	8.210335732	9.97957325	1.0
4	26.52600098	-15.31499958	15.31499958	-15.10395908	8.123038292	10.00613117	1.0
5	26.52600098	-15.31499958	15.31499958	-15.12362385	8.076992035	10.02015972	1.0
[LeftHandThumb4]
3	19.54599953	-11.28499985	11.28499985	0	0	0	1.0
4	19.54599953	-11.28499985	11.28499985	0	0	0	1.0
5	19.54599953	-11.28499985	11.28499985	0	0	0	1.0
[LeftHandIndex1]
3	91.09299469	-5.170999527	22.60099792	-1.184191346	-5.829955101	-22.96736526	1.0
4	91.09299469	-5.170999527	22.60099792	-1.272071362	-5.889078617	-23.89829254	1.0
5	91.09299469	-5.170999527	22.60099792	-1.239331961	-5.880642891	-23.52869034	1.0
[LeftHandIndex2]
3	36.76399994	0	0	-0.7242803574	2.816845894	-28.83452415	1.0
4	36.76399994	0	0	-0.7206934094	2.810288668	-28.7611618	1.0
5	36.76399994	0	0	-0.7144053578	2.798835754	-28.63288116	1.0
[LeftHandIndex3]
3	28.83100128	0	0	-0.3000661731	1.848386288	-18.44068718	1.0
4	28.83100128	0	0	-0.2976764441	1.841215849	-18.36663437	1.0
5	28.83100128	0	0	-0.2935376167	1.828678846	-18.23715401	1.0
[LeftHandIndex4]
3	23.92700005	0	0	0	0	0	1.0
4	23.92700005	0	0	0	0	0	1.0
5	23.92700005	0	0	0	0	0	1.0
[LeftHandMiddle1]
3	95.33399963	0	0	-2.476331949	2.198495865	-36.36852646	1.0
4	95.33399963	0	0	-2.495405197	2.288098097	-36.56827927	1.0
5	95.33399963	0	0	-2.427877188	2.445774555	-35.84270859	1.0
[LeftHandMiddle2]
3	36.98199844	0	0	-0.5851120949	2.548021078	-25.86124229	1.0
4	36.98199844	0	0	-0.5810762048	2.539720535	-25.77053261	1.0
5	36.98199844	0	0	-0.5697779059	2.516203165	-25.51431847	1.0
[LeftHandMiddle3]
3	29.50900078	0	0	-0.413091898	2.157775164	-21.67329216	1.0
4	29.50900078	0	0	-0.4096341133	2.14906764	-21.58158112	1.0
5	29.50900078	0	0	-0.3999933004	2.124497652	-21.32256699	1.0
[LeftHandMiddle4]
3	28.3390007	0	0	0	0	0	1.0
4	28.3390007	0	0	0	0	0	1.0
5	28.3390007	0	0	0	0	0	1.0
[LeftHandRing1]
3	91.04499817	-0.4390000105	-18.65100098	-2.206781149	3.436811209	-33.4157486	1.0
4	91.04499817	-0.4390000105	-18.65100098	-2.200494289	3.398649931	-33.34728241	1.0
5	91.04499817	-0.4390000105	-18.65100098	-2.12629652	3.535856724	-32.52221298	1.0
[LeftHandRing2]
3	31.54000092	0	0	-0.8722025156	3.069910288	-31.71460724	1.0
4	31.54000092	0	0	-0.8633574247	3.055568695	-31.54892921	1.0
5	31.54000092	0	0	-0.852463603	3.037787914	-31.34410286	1.0
[LeftHandRing3]
3	29.37700081	0	0	-0.9696605802	3.222053051	-33.49025345	1.0
4	29.37700081	0	0	-0.9602233171	3.2077775	-33.32214355	1.0
5	29.37700081	0	0	-0.9486381412	3.19008708	-33.11439133	1.0
[LeftHandRing4]
3	26.47500038	0	0	0	0	0	1.0
4	26.47500038	0	0	0	0	0	1.0
5	26.47500038	0	0	0	0	0	1.0
[LeftHandPinky1]
3	80.77799988	-4.887000084	-38.06099701	-1.837697029	3.459864378	-29.0609417	1.0
4	80.77799988	-4.887000084	-38.06099701	-1.87384069	2.979295492	-29.49295616	1.0
5	80.77799988	-4.887000084	-38.06099701	-1.850700021	2.882116556	-29.22694969	1.0
[LeftHandPinky2]
3	36	0	0	-0.4602886438	2.272845268	-22.89434242	1.0
4	36	0	0	-0.4617651105	2.276313066	-22.93144608	1.0
5	36	0	0	-0.4634565115	2.280308485	-22.97390556	1.0
[LeftHandPinky3]
3	21.14200211	0	0	-0.5265380144	2.423647881	-24.51134872	1.0
4	21.14200211	0	0	-0.5272886753	2.425283194	-24.52887535	1.0
5	21.14200211	0	0	-0.5285822749	2.428107262	-24.55954552	1.0
[LeftHandPinky4]
3	19.75699997	0	0	0	0	0	1.0
4	19.75699997	0	0	0	0	0	1.0
5	19.75699997	0	0	0	0	0	1.0
[RightShoulder]
3	-45.70000076	109.4620056	-26.28000069	-2.8177917	8.564641953	8.947793961	1.0
4	-45.70000076	109.4620056	-26.28000069	-2.959294796	9.624842644	8.977394104	1.0
5	-45.70000076	109.4620056	-26.28000069	-2.808324814	10.35751629	9.22340107	1.0
[RightArm]
3	-105.9280014	-5.248000145	-22.32099915	28.13714218	20.51385117	56.83700943	1.0
4	-105.9280014	-5.248000145	-22.32099915	31.37969398	22.75804901	54.79914474	1.0
5	-105.9280014	-5.248000145	-22.32099915	35.29174042	26.09131813	53.9234581	1.0
[RightForeArm]
3	-278.414978	0	0	-1.658047381e-06	19.05734062	6.410769402e-06	1.0
4	-278.414978	0	0	3.99154851e-06	21.6618557	8.158765013e-06	1.0
5	-278.414978	0	0	2.183705874e-06	23.03277779	5.636755759e-06	1.0
[RightHand]
3	-283.2879944	0	0.0009999999311	1.625787973	-1.738303542	-23.43984795	1.0
4	-283.2879944	0	0.0009999999311	0.2922211289	-1.515569329	-24.45508385	1.0
5	-283.2879944	0	0.0009999999311	-0.9344366193	0.3555904925	-24.29571533	1.0
[RightHandPinky1]
3	-80.76699829	-4.885000229	-38.06000137	-2.124302149	-3.680354834	35.23657608	1.0
4	-80.76699829	-4.885000229	-38.06000137	-2.085976839	-3.071511269	34.76135635	1.0
5	-80.76699829	-4.885000229	-38.06000137	-2.06605196	-2.828727722	34.51211548	1.0
[RightHandPinky2]
3	-36	0	0.0009999999311	-0.4036389887	-1.892542839	24.09695435	1.0
4	-36	0	0.0009999999311	-0.398906976	-1.881906748	23.95303345	1.0
5	-36	0	0.0009999999311	-0.3925983012	-1.867657423	23.76055145	1.0
[RightHandPinky3]
3	-21.14200211	0	0	-0.1786155403	-1.274965882	15.9492178	1.0
4	-21.14200211	0	0	-0.175331533	-1.263432145	15.80113602	1.0
5	-21.14200211	0	0	-0.1709489524	-1.247837067	15.60102177	1.0
[RightHandPinky4]
3	-19.75699997	0	0	0	0	0	1.0
4	-19.75699997	0	0	0	0	0	1.0
5	-19.75699997	0	0	0	0	0	1.0
[RightHandRing1]
3	-91.03599548	-0.4390000105	-18.65100098	-1.83091104	-6.592683792	31.50183868	1.0
4	-91.03599548	-0.4390000105	-18.65100098	-1.731678486	-6.352316856	30.19379616	1.0
5	-91.03599548	-0.4390000105	-18.65100098	-1.663603306	-6.131741047	29.28165817	1.0
[RightHandRing2]
3	-31.54000092	0	0	-0.378993392	-1.836419225	23.31972694	1.0
4	-31.54000092	0	0	-0.3771987259	-1.832256079	23.2636776	1.0
5	-31.54000092	0	0	-0.3733769059	-1.823344588	23.14396286	1.0
[RightHandRing3]
3	-29.37700081	0	0	-0.273208797	-1.568533301	19.7602272	1.0
4	-29.37700081	0	0	-0.2716951668	-1.564315557	19.70487022	1.0
5	-29.37700081	0	0	-0.2684354782	-1.55519259	19.58515739	1.0
[RightHandRing4]
3	-26.47500038	0	0	0	0	0	1.0
4	-26.47500038	0	0	0	0	0	1.0
5	-26.47500038	0	0	0	0	0	1.0
[RightHandMiddle1]
3	-95.32500458	0	0	-1.681626797	-2.14588666	29.52976418	1.0
4	-95.32500458	0	0	-1.593071103	-1.844752789	28.34639359	1.0
5	-95.32500458	0	0	-1.536589384	-1.862098217	27.57471848	1.0
[RightHandMiddle2]
3	-36.98199844	0	0	-0.2399042249	-1.472573042	18.50527763	1.0
4	-36.98199844	0	0	-0.2396101803	-1.471689343	18.49378014	1.0
5	-36.98199844	0	0	-0.2397979945	-1.472253799	18.50108337	1.0
[RightHandMiddle3]
3	-29.50900078	0	0	-0.08604251593	-0.8914492726	11.05063152	1.0
4	-29.50900078	0	0	-0.08586090058	-0.8905320168	11.03908253	1.0
5	-29.50900078	0	0	-0.08597440273	-0.8911187053	11.0464859	1.0
[RightHandMiddle4]
3	-28.3390007	0	0.0009999999311	0	0	0	1.0
4	-28.3390007	0	0.0009999999311	0	0	0	1.0
5	-28.3390007	0	0.0009999999311	0	0	0	1.0
[RightHandIndex1]
3	-91.08300018	-5.167999744	22.60099792	-1.182027459	2.660232306	22.8473587	1.0
4	-91.08300018	-5.167999744	22.60099792	-1.095906615	3.029308558	21.61724854	1.0
5	-91.08300018	-5.167999744	22.60099792	-1.042161584	2.928863287	20.79756546	1.0
[RightHandIndex2]
3	-36.76399994	0	0	-0.1015354097	-0.9653818011	12.0080061	1.0
4	-36.76399994	0	0	-0.1013528183	-0.9645133018	11.99704933	1.0
5	-36.76399994	0	0	-0.1012716591	-0.964150548	11.9923954	1.0
[RightHandIndex3]
3	-28.83100128	0	0	-0.1056677923	-0.9845996499	12.25074863	1.0
4	-28.83100128	0	0	-0.1054951251	-0.9838187695	12.24089909	1.0
5	-28.83100128	0	0	-0.1054308042	-0.983496666	12.23676491	1.0
[RightHandIndex4]
3	-23.92700005	0	0	0	0	0	1.0
4	-23.92700005	0	0	0	0	0	1.0
5	-23.92700005	0	0	0	0	0	1.0
[RightHandThumb1]
3	-24.64799881	-15.72700024	26.82600021	-0.1902875453	0.8218618631	0.3671384752	1.0
4	-24.64799881	-15.72700024	26.82600021	-0.1902875453	0.8218618631	0.3671384752	1.0
5	-24.64799881	-15.72700024	26.82600021	-0.1902875453	0.8218618631	0.3671384752	1.0
[RightHandThumb2]
3	-32.29800034	-18.64699936	18.64699936	13.0795269	-5.290281296	-20.20086098	1.0
4	-32.29800034	-18.64699936	18.64699936	10.53603172	-4.526714325	-20.01892853	1.0
5	-32.29800034	-18.64699936	18.64699936	10.26041126	-3.043035269	-19.41727066	1.0
[RightHandThumb3]
3	-26.52600098	-15.31399918	15.31399918	0.8070824146	5.633828163	-23.769104	1.0
4	-26.52600098	-15.31399918	15.31399918	1.263593435	4.608435631	-23.50442886	1.0
5	-26.52600098	-15.31399918	15.31399918	1.500613213	4.129776955	-23.15220261	1.0
[RightHandThumb4]
3	-19.54599953	-11.28499985	11.28499985	0	0	0	1.0
4	-19.54599953	-11.28499985	11.28499985	0	0	0	1.0
5	-19.54599953	-11.28499985	11.28499985	0	0	0	1.0
[LeftUpLeg]
3	82.07800293	-67.51699829	-15.99599934	-36.44093323	0.3260150552	-2.156618357	1.0
4	82.07800293	-67.51699829	-15.99599934	-38.94008636	1.670915961	-0.8009860516	1.0
5	82.07800293	-67.51699829	-15.99599934	-43.36058044	3.539289236	1.033126354	1.0
[LeftLeg]
3	0	-443.7049866	2.845999956	19.62678528	0.1636038423	0.2425724268	1.0
4	0	-443.7049866	2.845999956	8.496313095	1.998669386	0.54694736	1.0
5	0	-443.7049866	2.845999956	9.797458649	5.313028336	1.299144506	1.0
[LeftFoot]
3	0	-444.2789917	-29.8219986	-3.921004295	-0.09541612118	-7.084368706	1.0
4	0	-444.2789917	-29.8219986	-7.523252964	-0.4436333179	-7.993350983	1.0
5	0	-444.2789917	-29.8219986	-12.95670223	-1.196527719	-12.17311382	1.0
[LeftToeBase]
3	0	-87.28699493	107.1060028	-6.83412075	-1.931736188e-05	-2.086677341e-06	1.0
4	0	-87.28699493	107.1060028	-7.593682289	-2.063159263e-05	-1.638730828e-05	1.0
5	0	-87.28699493	107.1060028	-7.0531106	1.66781283e-05	1.072305167e-06	1.0
[RightUpLeg]
3	-82.07800293	-67.51699829	-15.99599934	-6.082984924	-7.496124268	5.852662563	1.0
4	-82.07800293	-67.51699829	-15.99599934	-1.26675272	-8.966935158	5.994445324	1.0
5	-82.07800293	-67.51699829	-15.99599934	5.482962608	-10.37468147	5.173710346	1.0
[RightLeg]
3	0	-443.7049866	2.861999989	21.02126694	6.687066078	3.102258444	1.0
4	0	-443.7049866	2.861999989	22.22264671	8.454855919	4.16960907	1.0
5	0	-443.7049866	2.861999989	19.99507904	8.47681427	4.058368683	1.0
[RightFoot]
3	0	-444.2770081	-29.83799934	-20.41827583	0.5762845874	-9.633029938	1.0
4	0	-444.2770081	-29.83799934	-26.38950348	4.848673344	-13.55913448	1.0
5	0	-444.2770081	-29.83799934	-31.85548973	10.74442768	-17.55404854	1.0
[RightToeBase]
3	0	-87.28699493	107.1060028	-7.239370823	-2.473147106e-05	4.588214779e-06	1.0
4	0	-87.28699493	107.1060028	-7.829960346	-1.592259832e-05	-2.019997112e-07	1.0
5	0	-87.28699493	107.1060028	-8.82743454	-2.313695404e-05	3.176255916e-07	1.0
[EndOfFile]
